# xmcd CD database file
#
# Track frame offsets:
#	150
#	20256
#	37511
#	52424
#	72610
#	89574
#	103861
#	124227
#	141450
#	155934
#	169650
#	186475
#	205132
#
# Disc length: 2965 seconds
#
# Revision: 0
# Processed by: cddbd v1.5.2PL0 Copyright (c) Steve Scherf et al.
# Submitted via: CDex 1.70beta2
#
DISCID=c90b930d
DTITLE=Norah Jones - Norah Jones_Baden Baden 2007
DYEAR=2007
DGENRE=Jazz
TTITLE0=Cold cold heart
TTITLE1=Sunrise
TTITLE2=Thinking about you
TTITLE3=Sinkin´ soon
TTITLE4=Not too late
TTITLE5=Not my friend
TTITLE6=Until the end
TTITLE7=Creepin´ in
TTITLE8=The long way home
TTITLE9=Little room
TTITLE10=Be my somebody
TTITLE11=Rosie´s lullaby
TTITLE12=Come away with me
EXTD=YEAR: 2007
EXTT0=
EXTT1=
EXTT2=
EXTT3=
EXTT4=
EXTT5=
EXTT6=
EXTT7=
EXTT8=
EXTT9=
EXTT10=
EXTT11=
EXTT12=
PLAYORDER=
